<mxfile host="app.diagrams.net" modified="2023-04-20T04:57:42.859Z" agent="Mozilla/5.0 (Windows NT 10.0; Win64; x64; rv:109.0) Gecko/20100101 Firefox/111.0" etag="Y6-lKjwjudv3jUqxRiXV" version="21.1.1" type="device">
  <diagram id="C5RBs43oDa-KdzZeNtuy" name="Page-1">
    <mxGraphModel dx="3695" dy="2733" grid="1" gridSize="10" guides="1" tooltips="1" connect="1" arrows="1" fold="1" page="1" pageScale="1" pageWidth="827" pageHeight="1169" math="0" shadow="0">
      <root>
        <mxCell id="WIyWlLk6GJQsqaUBKTNV-0" />
        <mxCell id="WIyWlLk6GJQsqaUBKTNV-1" parent="WIyWlLk6GJQsqaUBKTNV-0" />
        <mxCell id="FCpRp-jW8zjDWxCwC8f9-10" style="edgeStyle=orthogonalEdgeStyle;rounded=0;orthogonalLoop=1;jettySize=auto;html=1;exitX=0.5;exitY=1;exitDx=0;exitDy=0;entryX=0.558;entryY=0.025;entryDx=0;entryDy=0;entryPerimeter=0;" edge="1" parent="WIyWlLk6GJQsqaUBKTNV-1" source="hK1x0uk67OLwDIS3vJfw-1" target="FCpRp-jW8zjDWxCwC8f9-0">
          <mxGeometry relative="1" as="geometry" />
        </mxCell>
        <mxCell id="hK1x0uk67OLwDIS3vJfw-1" value="extract background&lt;br&gt;&lt;div&gt;(lightest pixels throughout the input video)&lt;/div&gt;" style="shape=process;whiteSpace=wrap;html=1;backgroundOutline=1;" parent="WIyWlLk6GJQsqaUBKTNV-1" vertex="1">
          <mxGeometry x="62" y="40" width="190" height="60" as="geometry" />
        </mxCell>
        <mxCell id="FCpRp-jW8zjDWxCwC8f9-11" style="edgeStyle=orthogonalEdgeStyle;rounded=0;orthogonalLoop=1;jettySize=auto;html=1;exitX=0.5;exitY=1;exitDx=0;exitDy=0;entryX=0.5;entryY=0;entryDx=0;entryDy=0;" edge="1" parent="WIyWlLk6GJQsqaUBKTNV-1" source="FCpRp-jW8zjDWxCwC8f9-0" target="FCpRp-jW8zjDWxCwC8f9-2">
          <mxGeometry relative="1" as="geometry" />
        </mxCell>
        <mxCell id="FCpRp-jW8zjDWxCwC8f9-83" style="edgeStyle=orthogonalEdgeStyle;rounded=0;orthogonalLoop=1;jettySize=auto;html=1;exitX=1;exitY=0.5;exitDx=0;exitDy=0;entryX=0.5;entryY=0;entryDx=0;entryDy=0;" edge="1" parent="WIyWlLk6GJQsqaUBKTNV-1" source="FCpRp-jW8zjDWxCwC8f9-0" target="FCpRp-jW8zjDWxCwC8f9-82">
          <mxGeometry relative="1" as="geometry" />
        </mxCell>
        <mxCell id="FCpRp-jW8zjDWxCwC8f9-0" value="for each frame" style="shape=hexagon;perimeter=hexagonPerimeter2;whiteSpace=wrap;html=1;fixedSize=1;" vertex="1" parent="WIyWlLk6GJQsqaUBKTNV-1">
          <mxGeometry x="92" y="130" width="120" height="40" as="geometry" />
        </mxCell>
        <mxCell id="FCpRp-jW8zjDWxCwC8f9-1" style="edgeStyle=orthogonalEdgeStyle;rounded=0;orthogonalLoop=1;jettySize=auto;html=1;exitX=0.5;exitY=1;exitDx=0;exitDy=0;" edge="1" parent="WIyWlLk6GJQsqaUBKTNV-1" source="FCpRp-jW8zjDWxCwC8f9-0" target="FCpRp-jW8zjDWxCwC8f9-0">
          <mxGeometry relative="1" as="geometry" />
        </mxCell>
        <mxCell id="FCpRp-jW8zjDWxCwC8f9-13" style="edgeStyle=orthogonalEdgeStyle;rounded=0;orthogonalLoop=1;jettySize=auto;html=1;exitX=0.5;exitY=1;exitDx=0;exitDy=0;" edge="1" parent="WIyWlLk6GJQsqaUBKTNV-1" source="FCpRp-jW8zjDWxCwC8f9-2" target="FCpRp-jW8zjDWxCwC8f9-3">
          <mxGeometry relative="1" as="geometry" />
        </mxCell>
        <mxCell id="FCpRp-jW8zjDWxCwC8f9-2" value="&lt;div&gt;convert frame to grayscale&lt;/div&gt;" style="whiteSpace=wrap;html=1;aspect=fixed;" vertex="1" parent="WIyWlLk6GJQsqaUBKTNV-1">
          <mxGeometry x="117" y="190" width="80" height="80" as="geometry" />
        </mxCell>
        <mxCell id="FCpRp-jW8zjDWxCwC8f9-15" style="edgeStyle=orthogonalEdgeStyle;rounded=0;orthogonalLoop=1;jettySize=auto;html=1;exitX=0.5;exitY=1;exitDx=0;exitDy=0;" edge="1" parent="WIyWlLk6GJQsqaUBKTNV-1" source="FCpRp-jW8zjDWxCwC8f9-3" target="FCpRp-jW8zjDWxCwC8f9-4">
          <mxGeometry relative="1" as="geometry" />
        </mxCell>
        <mxCell id="FCpRp-jW8zjDWxCwC8f9-3" value="background subtraction" style="whiteSpace=wrap;html=1;aspect=fixed;" vertex="1" parent="WIyWlLk6GJQsqaUBKTNV-1">
          <mxGeometry x="117" y="300" width="80" height="80" as="geometry" />
        </mxCell>
        <mxCell id="FCpRp-jW8zjDWxCwC8f9-16" style="edgeStyle=orthogonalEdgeStyle;rounded=0;orthogonalLoop=1;jettySize=auto;html=1;exitX=0.5;exitY=1;exitDx=0;exitDy=0;entryX=0.5;entryY=0;entryDx=0;entryDy=0;" edge="1" parent="WIyWlLk6GJQsqaUBKTNV-1" source="FCpRp-jW8zjDWxCwC8f9-4" target="FCpRp-jW8zjDWxCwC8f9-5">
          <mxGeometry relative="1" as="geometry" />
        </mxCell>
        <mxCell id="FCpRp-jW8zjDWxCwC8f9-4" value="triangle thresholding" style="whiteSpace=wrap;html=1;aspect=fixed;" vertex="1" parent="WIyWlLk6GJQsqaUBKTNV-1">
          <mxGeometry x="117" y="410" width="80" height="80" as="geometry" />
        </mxCell>
        <mxCell id="FCpRp-jW8zjDWxCwC8f9-17" style="edgeStyle=orthogonalEdgeStyle;rounded=0;orthogonalLoop=1;jettySize=auto;html=1;exitX=0.5;exitY=1;exitDx=0;exitDy=0;entryX=0.5;entryY=0;entryDx=0;entryDy=0;" edge="1" parent="WIyWlLk6GJQsqaUBKTNV-1" source="FCpRp-jW8zjDWxCwC8f9-5" target="FCpRp-jW8zjDWxCwC8f9-6">
          <mxGeometry relative="1" as="geometry" />
        </mxCell>
        <mxCell id="FCpRp-jW8zjDWxCwC8f9-5" value="calculate controus" style="whiteSpace=wrap;html=1;aspect=fixed;" vertex="1" parent="WIyWlLk6GJQsqaUBKTNV-1">
          <mxGeometry x="117" y="520" width="80" height="80" as="geometry" />
        </mxCell>
        <mxCell id="FCpRp-jW8zjDWxCwC8f9-27" style="edgeStyle=orthogonalEdgeStyle;rounded=0;orthogonalLoop=1;jettySize=auto;html=1;exitX=0.5;exitY=1;exitDx=0;exitDy=0;entryX=0.5;entryY=0;entryDx=0;entryDy=0;" edge="1" parent="WIyWlLk6GJQsqaUBKTNV-1" source="FCpRp-jW8zjDWxCwC8f9-6" target="FCpRp-jW8zjDWxCwC8f9-26">
          <mxGeometry relative="1" as="geometry" />
        </mxCell>
        <mxCell id="FCpRp-jW8zjDWxCwC8f9-6" value="for each contour in current frame" style="shape=hexagon;perimeter=hexagonPerimeter2;whiteSpace=wrap;html=1;fixedSize=1;" vertex="1" parent="WIyWlLk6GJQsqaUBKTNV-1">
          <mxGeometry x="54.5" y="630" width="205" height="40" as="geometry" />
        </mxCell>
        <mxCell id="FCpRp-jW8zjDWxCwC8f9-33" style="edgeStyle=orthogonalEdgeStyle;rounded=0;orthogonalLoop=1;jettySize=auto;html=1;exitX=0.5;exitY=1;exitDx=0;exitDy=0;entryX=0.5;entryY=0;entryDx=0;entryDy=0;" edge="1" parent="WIyWlLk6GJQsqaUBKTNV-1" source="FCpRp-jW8zjDWxCwC8f9-7" target="FCpRp-jW8zjDWxCwC8f9-21">
          <mxGeometry relative="1" as="geometry" />
        </mxCell>
        <mxCell id="FCpRp-jW8zjDWxCwC8f9-7" value="| current_position - previous position | &amp;lt; 1" style="rhombus;whiteSpace=wrap;html=1;" vertex="1" parent="WIyWlLk6GJQsqaUBKTNV-1">
          <mxGeometry x="67" y="770" width="180" height="120" as="geometry" />
        </mxCell>
        <mxCell id="FCpRp-jW8zjDWxCwC8f9-36" style="edgeStyle=orthogonalEdgeStyle;rounded=0;orthogonalLoop=1;jettySize=auto;html=1;exitX=0.5;exitY=1;exitDx=0;exitDy=0;entryX=0.5;entryY=0;entryDx=0;entryDy=0;" edge="1" parent="WIyWlLk6GJQsqaUBKTNV-1" source="FCpRp-jW8zjDWxCwC8f9-19" target="FCpRp-jW8zjDWxCwC8f9-35">
          <mxGeometry relative="1" as="geometry" />
        </mxCell>
        <mxCell id="FCpRp-jW8zjDWxCwC8f9-19" value="mark countour as static" style="whiteSpace=wrap;html=1;aspect=fixed;" vertex="1" parent="WIyWlLk6GJQsqaUBKTNV-1">
          <mxGeometry x="232" y="930" width="80" height="80" as="geometry" />
        </mxCell>
        <mxCell id="FCpRp-jW8zjDWxCwC8f9-39" style="edgeStyle=orthogonalEdgeStyle;rounded=0;orthogonalLoop=1;jettySize=auto;html=1;exitX=0.5;exitY=1;exitDx=0;exitDy=0;entryX=0.5;entryY=0;entryDx=0;entryDy=0;" edge="1" parent="WIyWlLk6GJQsqaUBKTNV-1" source="FCpRp-jW8zjDWxCwC8f9-21" target="FCpRp-jW8zjDWxCwC8f9-37">
          <mxGeometry relative="1" as="geometry" />
        </mxCell>
        <mxCell id="FCpRp-jW8zjDWxCwC8f9-21" value="mark countour as active" style="whiteSpace=wrap;html=1;aspect=fixed;" vertex="1" parent="WIyWlLk6GJQsqaUBKTNV-1">
          <mxGeometry x="117" y="930" width="80" height="80" as="geometry" />
        </mxCell>
        <mxCell id="FCpRp-jW8zjDWxCwC8f9-23" value="true" style="text;strokeColor=none;align=center;fillColor=none;html=1;verticalAlign=middle;whiteSpace=wrap;rounded=0;" vertex="1" parent="WIyWlLk6GJQsqaUBKTNV-1">
          <mxGeometry x="259.5" y="890" width="60" height="30" as="geometry" />
        </mxCell>
        <mxCell id="FCpRp-jW8zjDWxCwC8f9-34" style="edgeStyle=orthogonalEdgeStyle;rounded=0;orthogonalLoop=1;jettySize=auto;html=1;exitX=1;exitY=0.5;exitDx=0;exitDy=0;entryX=0.5;entryY=0;entryDx=0;entryDy=0;" edge="1" parent="WIyWlLk6GJQsqaUBKTNV-1" source="FCpRp-jW8zjDWxCwC8f9-7" target="FCpRp-jW8zjDWxCwC8f9-19">
          <mxGeometry relative="1" as="geometry" />
        </mxCell>
        <mxCell id="FCpRp-jW8zjDWxCwC8f9-24" value="false" style="text;strokeColor=none;align=center;fillColor=none;html=1;verticalAlign=middle;whiteSpace=wrap;rounded=0;" vertex="1" parent="WIyWlLk6GJQsqaUBKTNV-1">
          <mxGeometry x="142" y="890" width="60" height="30" as="geometry" />
        </mxCell>
        <mxCell id="FCpRp-jW8zjDWxCwC8f9-28" style="edgeStyle=orthogonalEdgeStyle;rounded=0;orthogonalLoop=1;jettySize=auto;html=1;exitX=0.5;exitY=1;exitDx=0;exitDy=0;" edge="1" parent="WIyWlLk6GJQsqaUBKTNV-1" source="FCpRp-jW8zjDWxCwC8f9-26" target="FCpRp-jW8zjDWxCwC8f9-7">
          <mxGeometry relative="1" as="geometry" />
        </mxCell>
        <mxCell id="FCpRp-jW8zjDWxCwC8f9-26" value="for each contour in previous frame" style="shape=hexagon;perimeter=hexagonPerimeter2;whiteSpace=wrap;html=1;fixedSize=1;" vertex="1" parent="WIyWlLk6GJQsqaUBKTNV-1">
          <mxGeometry x="54.5" y="700" width="205" height="40" as="geometry" />
        </mxCell>
        <mxCell id="FCpRp-jW8zjDWxCwC8f9-35" value="B" style="ellipse;whiteSpace=wrap;html=1;" vertex="1" parent="WIyWlLk6GJQsqaUBKTNV-1">
          <mxGeometry x="247" y="1033" width="50" height="40" as="geometry" />
        </mxCell>
        <mxCell id="FCpRp-jW8zjDWxCwC8f9-37" value="C" style="ellipse;whiteSpace=wrap;html=1;" vertex="1" parent="WIyWlLk6GJQsqaUBKTNV-1">
          <mxGeometry x="132" y="1030" width="50" height="40" as="geometry" />
        </mxCell>
        <mxCell id="FCpRp-jW8zjDWxCwC8f9-50" style="edgeStyle=orthogonalEdgeStyle;rounded=0;orthogonalLoop=1;jettySize=auto;html=1;exitX=0.5;exitY=1;exitDx=0;exitDy=0;" edge="1" parent="WIyWlLk6GJQsqaUBKTNV-1" source="FCpRp-jW8zjDWxCwC8f9-40" target="FCpRp-jW8zjDWxCwC8f9-48">
          <mxGeometry relative="1" as="geometry" />
        </mxCell>
        <mxCell id="FCpRp-jW8zjDWxCwC8f9-40" value="C" style="ellipse;whiteSpace=wrap;html=1;" vertex="1" parent="WIyWlLk6GJQsqaUBKTNV-1">
          <mxGeometry x="455" y="60" width="50" height="40" as="geometry" />
        </mxCell>
        <mxCell id="FCpRp-jW8zjDWxCwC8f9-64" style="edgeStyle=orthogonalEdgeStyle;rounded=0;orthogonalLoop=1;jettySize=auto;html=1;exitX=1;exitY=0.5;exitDx=0;exitDy=0;entryX=0;entryY=0.5;entryDx=0;entryDy=0;" edge="1" parent="WIyWlLk6GJQsqaUBKTNV-1" source="FCpRp-jW8zjDWxCwC8f9-43" target="FCpRp-jW8zjDWxCwC8f9-26">
          <mxGeometry relative="1" as="geometry" />
        </mxCell>
        <mxCell id="FCpRp-jW8zjDWxCwC8f9-43" value="B" style="ellipse;whiteSpace=wrap;html=1;" vertex="1" parent="WIyWlLk6GJQsqaUBKTNV-1">
          <mxGeometry x="-30" y="700" width="50" height="40" as="geometry" />
        </mxCell>
        <mxCell id="FCpRp-jW8zjDWxCwC8f9-54" style="edgeStyle=orthogonalEdgeStyle;rounded=0;orthogonalLoop=1;jettySize=auto;html=1;exitX=0.5;exitY=1;exitDx=0;exitDy=0;entryX=0.5;entryY=0;entryDx=0;entryDy=0;" edge="1" parent="WIyWlLk6GJQsqaUBKTNV-1" source="FCpRp-jW8zjDWxCwC8f9-48" target="FCpRp-jW8zjDWxCwC8f9-53">
          <mxGeometry relative="1" as="geometry" />
        </mxCell>
        <mxCell id="FCpRp-jW8zjDWxCwC8f9-48" value="for each tracked countour" style="shape=hexagon;perimeter=hexagonPerimeter2;whiteSpace=wrap;html=1;fixedSize=1;" vertex="1" parent="WIyWlLk6GJQsqaUBKTNV-1">
          <mxGeometry x="400" y="130" width="160" height="50" as="geometry" />
        </mxCell>
        <mxCell id="FCpRp-jW8zjDWxCwC8f9-57" style="edgeStyle=orthogonalEdgeStyle;rounded=0;orthogonalLoop=1;jettySize=auto;html=1;exitX=0.5;exitY=1;exitDx=0;exitDy=0;entryX=0.5;entryY=0;entryDx=0;entryDy=0;" edge="1" parent="WIyWlLk6GJQsqaUBKTNV-1" source="FCpRp-jW8zjDWxCwC8f9-49" target="FCpRp-jW8zjDWxCwC8f9-55">
          <mxGeometry relative="1" as="geometry" />
        </mxCell>
        <mxCell id="FCpRp-jW8zjDWxCwC8f9-58" style="edgeStyle=orthogonalEdgeStyle;rounded=0;orthogonalLoop=1;jettySize=auto;html=1;exitX=1;exitY=0.5;exitDx=0;exitDy=0;entryX=0.5;entryY=0;entryDx=0;entryDy=0;" edge="1" parent="WIyWlLk6GJQsqaUBKTNV-1" source="FCpRp-jW8zjDWxCwC8f9-66" target="FCpRp-jW8zjDWxCwC8f9-60">
          <mxGeometry relative="1" as="geometry">
            <mxPoint x="656" y="510.0000000000002" as="targetPoint" />
            <Array as="points">
              <mxPoint x="640" y="325" />
              <mxPoint x="640" y="490" />
              <mxPoint x="480" y="490" />
            </Array>
          </mxGeometry>
        </mxCell>
        <mxCell id="FCpRp-jW8zjDWxCwC8f9-49" value="&lt;div&gt;| current_position - tracked_position | &lt;br&gt;&lt;/div&gt;&lt;div&gt;&amp;lt; HOP_DISTANCE&lt;/div&gt;" style="rhombus;whiteSpace=wrap;html=1;" vertex="1" parent="WIyWlLk6GJQsqaUBKTNV-1">
          <mxGeometry x="340" y="260" width="280" height="130" as="geometry" />
        </mxCell>
        <mxCell id="FCpRp-jW8zjDWxCwC8f9-56" style="edgeStyle=orthogonalEdgeStyle;rounded=0;orthogonalLoop=1;jettySize=auto;html=1;exitX=0.5;exitY=1;exitDx=0;exitDy=0;entryX=0.5;entryY=0;entryDx=0;entryDy=0;" edge="1" parent="WIyWlLk6GJQsqaUBKTNV-1" source="FCpRp-jW8zjDWxCwC8f9-53" target="FCpRp-jW8zjDWxCwC8f9-49">
          <mxGeometry relative="1" as="geometry" />
        </mxCell>
        <mxCell id="FCpRp-jW8zjDWxCwC8f9-53" value="for each active contour" style="shape=hexagon;perimeter=hexagonPerimeter2;whiteSpace=wrap;html=1;fixedSize=1;" vertex="1" parent="WIyWlLk6GJQsqaUBKTNV-1">
          <mxGeometry x="390" y="200" width="180" height="40" as="geometry" />
        </mxCell>
        <mxCell id="FCpRp-jW8zjDWxCwC8f9-65" style="edgeStyle=orthogonalEdgeStyle;rounded=0;orthogonalLoop=1;jettySize=auto;html=1;exitX=0.5;exitY=1;exitDx=0;exitDy=0;entryX=0.5;entryY=0;entryDx=0;entryDy=0;" edge="1" parent="WIyWlLk6GJQsqaUBKTNV-1" source="FCpRp-jW8zjDWxCwC8f9-55" target="FCpRp-jW8zjDWxCwC8f9-60">
          <mxGeometry relative="1" as="geometry" />
        </mxCell>
        <mxCell id="FCpRp-jW8zjDWxCwC8f9-55" value="tracked_position ←&lt;br&gt;current_position" style="rounded=0;whiteSpace=wrap;html=1;" vertex="1" parent="WIyWlLk6GJQsqaUBKTNV-1">
          <mxGeometry x="420" y="410" width="120" height="60" as="geometry" />
        </mxCell>
        <mxCell id="FCpRp-jW8zjDWxCwC8f9-72" style="edgeStyle=orthogonalEdgeStyle;rounded=0;orthogonalLoop=1;jettySize=auto;html=1;exitX=0.5;exitY=1;exitDx=0;exitDy=0;entryX=0.5;entryY=0;entryDx=0;entryDy=0;" edge="1" parent="WIyWlLk6GJQsqaUBKTNV-1" source="FCpRp-jW8zjDWxCwC8f9-60" target="FCpRp-jW8zjDWxCwC8f9-71">
          <mxGeometry relative="1" as="geometry" />
        </mxCell>
        <mxCell id="FCpRp-jW8zjDWxCwC8f9-60" value="draw heatmap kernel" style="rounded=0;whiteSpace=wrap;html=1;" vertex="1" parent="WIyWlLk6GJQsqaUBKTNV-1">
          <mxGeometry x="410" y="510" width="140" height="50" as="geometry" />
        </mxCell>
        <mxCell id="FCpRp-jW8zjDWxCwC8f9-62" style="edgeStyle=orthogonalEdgeStyle;rounded=0;orthogonalLoop=1;jettySize=auto;html=1;exitX=1;exitY=0.5;exitDx=0;exitDy=0;entryX=0;entryY=0.5;entryDx=0;entryDy=0;" edge="1" parent="WIyWlLk6GJQsqaUBKTNV-1" source="FCpRp-jW8zjDWxCwC8f9-61" target="FCpRp-jW8zjDWxCwC8f9-0">
          <mxGeometry relative="1" as="geometry" />
        </mxCell>
        <mxCell id="FCpRp-jW8zjDWxCwC8f9-61" value="A" style="ellipse;whiteSpace=wrap;html=1;" vertex="1" parent="WIyWlLk6GJQsqaUBKTNV-1">
          <mxGeometry x="17" y="130" width="50" height="40" as="geometry" />
        </mxCell>
        <mxCell id="FCpRp-jW8zjDWxCwC8f9-68" value="" style="edgeStyle=orthogonalEdgeStyle;rounded=0;orthogonalLoop=1;jettySize=auto;html=1;exitX=1;exitY=0.5;exitDx=0;exitDy=0;entryX=0.5;entryY=0;entryDx=0;entryDy=0;" edge="1" parent="WIyWlLk6GJQsqaUBKTNV-1" source="FCpRp-jW8zjDWxCwC8f9-49" target="FCpRp-jW8zjDWxCwC8f9-66">
          <mxGeometry relative="1" as="geometry">
            <mxPoint x="480" y="530" as="targetPoint" />
            <mxPoint x="620" y="325" as="sourcePoint" />
            <Array as="points" />
          </mxGeometry>
        </mxCell>
        <mxCell id="FCpRp-jW8zjDWxCwC8f9-66" value="false" style="text;strokeColor=none;align=center;fillColor=none;html=1;verticalAlign=middle;whiteSpace=wrap;rounded=0;" vertex="1" parent="WIyWlLk6GJQsqaUBKTNV-1">
          <mxGeometry x="580" y="340" width="60" height="30" as="geometry" />
        </mxCell>
        <mxCell id="FCpRp-jW8zjDWxCwC8f9-69" value="true" style="text;strokeColor=none;align=center;fillColor=none;html=1;verticalAlign=middle;whiteSpace=wrap;rounded=0;" vertex="1" parent="WIyWlLk6GJQsqaUBKTNV-1">
          <mxGeometry x="480" y="380" width="60" height="30" as="geometry" />
        </mxCell>
        <mxCell id="FCpRp-jW8zjDWxCwC8f9-71" value="A" style="ellipse;whiteSpace=wrap;html=1;" vertex="1" parent="WIyWlLk6GJQsqaUBKTNV-1">
          <mxGeometry x="455" y="600" width="50" height="40" as="geometry" />
        </mxCell>
        <mxCell id="FCpRp-jW8zjDWxCwC8f9-80" style="edgeStyle=orthogonalEdgeStyle;rounded=0;orthogonalLoop=1;jettySize=auto;html=1;exitX=0.5;exitY=1;exitDx=0;exitDy=0;entryX=0.5;entryY=0;entryDx=0;entryDy=0;" edge="1" parent="WIyWlLk6GJQsqaUBKTNV-1" source="FCpRp-jW8zjDWxCwC8f9-79" target="hK1x0uk67OLwDIS3vJfw-1">
          <mxGeometry relative="1" as="geometry" />
        </mxCell>
        <mxCell id="FCpRp-jW8zjDWxCwC8f9-79" value="start" style="ellipse;whiteSpace=wrap;html=1;" vertex="1" parent="WIyWlLk6GJQsqaUBKTNV-1">
          <mxGeometry x="122" y="-10" width="70" height="30" as="geometry" />
        </mxCell>
        <mxCell id="FCpRp-jW8zjDWxCwC8f9-82" value="end" style="ellipse;whiteSpace=wrap;html=1;" vertex="1" parent="WIyWlLk6GJQsqaUBKTNV-1">
          <mxGeometry x="220" y="205" width="70" height="30" as="geometry" />
        </mxCell>
      </root>
    </mxGraphModel>
  </diagram>
</mxfile>
